<svg xmlns="http://www.w3.org/2000/svg" viewBox="0 0 677.64 179.2"><defs><style>.cls-1{fill:#eca937;}.cls-2{fill:#383b51;}</style></defs><g id="Capa_2" data-name="Capa 2"><g id="Capa_1-2" data-name="Capa 1"><path class="cls-1" d="M38,35.1a14.27,14.27,0,0,1,4,0,9.73,9.73,0,0,1,5.71,4.53c1.49,2.79.4,5.61-1.63,7.77-2.71,2.88-6.85,4.73-10.17,6.85C26.59,60.15,20,70.91,17.22,81.41c-3.92,15.06.54,32.63,12.31,43.18,3.4,3,8.52,5.3,10.73,9.36a6.7,6.7,0,0,1,.66,5.44c-.82,2.64-3.47,4.23-5.74,5.48a13.51,13.51,0,0,1-6.24-1.26C18.22,139,9.08,126.82,4.7,116.35c-.39-1-.76-1.92-1.1-2.89s-.67-1.94-1-2.93-.57-2-.82-3-.47-2-.67-3-.37-2-.51-3-.27-2-.37-3.07S.11,96.38.06,95.35,0,93.29,0,92.26s0-2.05.09-3.08.14-2.06.25-3.08.24-2,.4-3.06.34-2,.55-3,.44-2,.7-3,.54-2,.85-3,.63-2,1-2.93S4.56,69.18,5,68.23s.78-1.83,1.21-2.74.88-1.79,1.35-2.67,1-1.76,1.47-2.61,1.05-1.71,1.6-2.54,1.13-1.65,1.73-2.45,1.21-1.59,1.84-2.37,1.28-1.53,2-2.27,1.36-1.47,2.07-2.17,1.42-1.4,2.16-2.08,1.5-1.32,2.27-2,1.55-1.25,2.35-1.85,1.62-1.18,2.45-1.73,1.67-1.1,2.53-1.62,1.72-1,2.6-1.48,1.77-.93,2.67-1.36S37,35.49,38,35.1Z"/><path class="cls-2" d="M198.75,2.65c6.06-.11,35.83-1.27,39.25,1.5a6,6,0,0,1,1.77,4.65,7.08,7.08,0,0,1-2.3,5.27c-5,4.59-26,2.46-32.78,2.28l-3.92,18.91c4.8-.06,17.43-1.52,20.64,2.2a4.85,4.85,0,0,1,1.09,3.38,8.45,8.45,0,0,1-2.47,6c-4.55,4.15-16.54,2-22.41,1.79-1.41,6.24-2.55,12.57-3.79,18.85-.11,1.19-.39,1.3.39,2.29C201.06,71.5,210,70,217,70c2,0,4.61.33,5.93,2,1,1.31,1,3.35.91,4.93a6.83,6.83,0,0,1-2.38,5,9.52,9.52,0,0,1-4.81,1.82c-5.48.74-11.62-.16-17.18-.19-4.92,0-10.12.62-15,0-3-.38-5.1-1.25-7-3.66-.32-8.9,8.1-40.3,10.53-51.12,1.56-6.92,2.49-14.49,4.72-21.19C193.67,4.85,196.33,3.8,198.75,2.65Z"/><path class="cls-2" d="M341.61.74c7.68-1.07,16.94.7,23.42,5.05a9.82,9.82,0,0,1,4.4,6.4,6.36,6.36,0,0,1-1.15,4.71c-5.08,6.7-12.93,0-18.5-1.74a23,23,0,0,0-11-.31C329.88,16.58,322,22.51,317,30c-4.49,6.86-6.57,15.7-4.68,23.77a23.19,23.19,0,0,0,10.53,14.53c6.69,3.88,15.34,2.67,22.06-.48,2.79-1.31,5.38-3,8.39-3.72l.46-.11c.49.25,1,.48,1.45.76a5.71,5.71,0,0,1,2.66,3.72,11.08,11.08,0,0,1-2,8.28c-3.48,4.8-10.63,6.53-16.2,7.47-10.44,1.77-20.94.48-29.65-5.86-.45-.32-.88-.65-1.31-1s-.85-.69-1.26-1.05-.82-.74-1.21-1.12-.77-.78-1.14-1.18-.74-.82-1.09-1.24-.69-.85-1-1.28-.65-.89-1-1.34-.6-.92-.89-1.39-.55-.94-.81-1.43-.51-1-.74-1.46-.46-1-.67-1.51-.41-1-.59-1.53-.36-1-.51-1.56-.3-1.06-.43-1.59-.25-1.07-.36-1.61-.19-1.08-.27-1.62C295,43.93,299.62,30.7,307.2,20.76,315.94,9.3,327.35,2.59,341.61.74Z"/><path class="cls-2" d="M216.49,94.68c9-1.2,18.6,0,25.92,5.77,1.8,1.41,3.26,3.12,3.47,5.49a7.11,7.11,0,0,1-1.85,5.21c-5.35,6-10.69.44-16.24-1.33A26.75,26.75,0,0,0,219,109c-8.34.38-15.9,4.62-21.46,10.69C191,126.79,187,137,187.65,146.79a19.9,19.9,0,0,0,7.52,13.71c7.34,5.93,16.87,4.49,24.63.23,2.29-1.25,5.15-3.51,7.77-3.66.32,0,.65,0,1,0,2.34,1.58,5.13,4.13,5.92,6.94a5.31,5.31,0,0,1-.74,4.45c-3.27,5.06-13.41,8.15-19.07,9.27-10,2-20.88.9-29.44-4.91A30.68,30.68,0,0,1,172.61,153c-2.24-11.9,1.81-25.66,8.66-35.43C189.73,105.44,201.89,97.23,216.49,94.68Z"/><path class="cls-2" d="M263,93.63c2,.09,4.32.28,5.69,2s1.12,4,.91,5.85c-.45,3.94-1.76,7.9-2.78,11.73-3,11.3-7.71,24.78-9,36.25-.35,3.25-.33,7.36,2,10a16.14,16.14,0,0,0,9.83,4.77c5.18.27,13.09-1.82,16.64-5.78,9.71-10.81,12.14-57.65,19.85-63.33,1.45-1.07,3.72-1.15,5.45-.91a5.58,5.58,0,0,1,4.31,2.54c2.18,3.86-.65,11.6-1.64,15.7-3.11,12.7-6.9,35.07-12.1,46.08A33.2,33.2,0,0,1,282.83,176c-8.55,3-19.53,3.34-27.74-.84-.32-.16-.65-.33-1-.51s-.63-.37-.94-.56l-.91-.61c-.3-.21-.59-.43-.88-.66s-.56-.46-.84-.7-.54-.48-.8-.74-.52-.51-.77-.78-.49-.54-.72-.82-.47-.56-.69-.85-.43-.59-.64-.89-.4-.61-.59-.92-.37-.63-.54-.95-.34-.64-.5-1-.3-.66-.44-1-.27-.68-.39-1-.24-.69-.35-1a29,29,0,0,1-.79-11.68c.73-6.31,10.73-47.64,13.42-52.5C258.26,95.23,260.11,94.4,263,93.63Z"/><path class="cls-2" d="M423.25,36.64c-1.61-9.7-2.68-19.56-4.55-29.21-.36-1.86-.81-4.24-2-5.77C415.76.42,413.8.3,412.34.08a10,10,0,0,0-5.29,3.59c-7.65,9.59-13.66,21.42-20.37,31.76l-17,26.35c-2.88,4.4-6.49,8.8-8.83,13.5a6,6,0,0,0-.47,4.89,5.49,5.49,0,0,0,3.78,3.14,8.78,8.78,0,0,0,6.91-1c4.13-2.76,7.22-10,10.26-14L384,65.48c6.33-.1,25.82-1.45,30.25,2,3,4.81.4,14.15,7.61,15.88a5.29,5.29,0,0,0,4.47-.8,9.06,9.06,0,0,0,3.5-6.37C430.25,72.94,424.22,42.48,423.25,36.64ZM407.09,51.51c-1.69-.1-3.39-.14-5.08-.21l-3.48-.16c-.83,0-2.16-.09-3.41-.21l-.91-.09c-1.2-.07-1.55,0-1.68-.15s.13-.51.82-1.67c.52-.87.27-.52.88-1.54s1-1.67,1.26-2c1.6-2.46,1.34-2.27,2.3-3.67s1.31-1.74,2.19-3.17c.29-.47.51-.86.66-1.12l.85-1.27.77-1.15c.25-.33.58-.8,1-1.36.6-.88.67-1,1.6-2.44s.8-1.17.94-1.42c.36-.66.46-1,.67-1s.28.05.72,1.29a21.42,21.42,0,0,1,.72,2.55c.15.61.23,1,.34,1.47.16.79.25,1.38.29,1.63.11.74.3,1.84.65,3.4s.48,2.93.61,3.84c.16,1.1.22,1.64.35,2.6.05.31.07.49.2,1.38.25,1.74.24,1.69.25,1.75A12.53,12.53,0,0,1,411,51a.68.68,0,0,1-.09.48c-.26.32-.9.16-1.6.07S407.81,51.55,407.09,51.51Z"/><path class="cls-2" d="M369.3,102.59c-7.48-7.55-19.17-7.37-29-7.19q-3.46.06-6.93.26c-2.44,1.53-4.7,3-5.48,6-1.12,4.17-1.73,8.52-2.76,12.72-1.87,7.72-4.06,15.38-6.09,23.06-3,11.25-7.15,23.32-8.65,34.86a4.56,4.56,0,0,0,.77,3.19,5.24,5.24,0,0,0,3.8,2.43,7.75,7.75,0,0,0,5.49-1.07c5.2-3.73,6.82-17.32,8.34-23.53l1.69-6.06c12.2.4,25.45,1.32,35-7.78a30.53,30.53,0,0,0,9.63-21.08A21.45,21.45,0,0,0,369.3,102.59Zm-7.9,18.6c-.68,6.5-6.94,9.89-8,10.49a20.65,20.65,0,0,1-5.66,1.94,27.66,27.66,0,0,1-6.91.66l-1.25,0h-2.78l-1.92,0c.09-.63.22-1.45.39-2.42,0,0,.19-1.07.41-2.2.32-1.69,1-5,2-9,.53-2.13,1-4.08,1.22-4.75l.55-2.07c.18-.67.31-1.13.54-2,.13-.49.24-.89.3-1.14a3.85,3.85,0,0,1,.36-1.12,3.34,3.34,0,0,1,.76-1,2.09,2.09,0,0,1,.51-.35,3.06,3.06,0,0,1,1.43-.09c.25,0,.62,0,1.06,0a23.56,23.56,0,0,1,3.13,0,23.23,23.23,0,0,1,4.88.77c1.18.35,5.42,1.61,7.68,5.66A11.3,11.3,0,0,1,361.4,121.19Z"/><path class="cls-2" d="M293.16,30.31c1.77-5.52,2.24-12.42-.45-17.68-2.38-4.66-7.25-7.66-12.17-9-8.14-2.26-18.39-1.06-26.8-1-4.26,2.37-5.56,4.3-6.88,8.92-2.79,9.7-4.71,19.73-7.23,29.51-2.9,11.24-6.56,22.69-8.62,34.1-.31,1.7-.95,4.66-.22,6.27s3.78,3.1,5.43,3.44a5.64,5.64,0,0,0,4.44-1c7.12-5,7.59-37.52,16.66-35.71,3.84.77,6.63,5.09,8.31,8.29,1.52,2.88,2.92,5.83,4.32,8.77,2.31,4.71,7.38,18.59,12.55,20.2a6.47,6.47,0,0,0,5.29-1,23.23,23.23,0,0,0,5.26-5.12c-1.85-7-5.76-13.33-9-19.73-2.13-4.24-4-8.61-6.25-12.81C285.22,43,290.51,38.56,293.16,30.31Zm-15-.17A10.32,10.32,0,0,1,275.33,34c-2.08,1.68-4.41,2.12-7,2.59a27.56,27.56,0,0,1-3.57.41c-.29,0-.72.07-1.24.09-2.72.12-6,.27-7.29-1.11a2.35,2.35,0,0,1-.3-.48c-1.35-2.51.68-4.7,1.8-10.43.09-.46.19-.9.3-1.35.22-.88.4-1.73.7-2.76.14-.48.33-1.13.6-1.9l.14-.35.15-.4.19-.35c.08-.13.15-.26.23-.38l.18-.24.19-.27.12-.21a1.49,1.49,0,0,1,.19-.24.67.67,0,0,1,.14-.12,2.29,2.29,0,0,1,.83-.37l.36,0h.08a2.63,2.63,0,0,1,.49-.07h.23l9.42.08c1,.11,4.42.6,6.37,3.38C281.51,23.44,278.79,28.83,278.2,30.14Z"/><path class="cls-2" d="M110.52,1.54a10.78,10.78,0,0,1,3.27.78,4.9,4.9,0,0,1,2.36,2.35c2.42,5,3.43,11.11,4.85,16.53,3.19,12.21,6,24.89,10.25,36.79,3.86-4.31,7.26-9.21,10.76-13.83q8.84-11.56,17.34-23.37C163,15.62,166.55,9.63,170.91,5c1.48-1.57,3.79-3.31,6-3.55a3.77,3.77,0,0,1,3.1.94c2.09,1.84,2.48,5.27,2.35,7.88-.19,4-1.64,8.34-2.56,12.3l-5.6,23.91c-2.32,9.92-3.81,20.53-7,30.19-.83,2.55-1.69,4.7-3.8,6.46a7.44,7.44,0,0,1-5.92,2,6.37,6.37,0,0,1-4.07-2.87c-2.72-4.29,3-22.91,4.25-28.3,1.47-5.16,2.49-10.59,3.69-15.83-5.66,8-11.53,15.79-17.31,23.69-3.44,4.71-6.78,10.09-10.79,14.34a14.53,14.53,0,0,1-5.58,4,4.28,4.28,0,0,1-3.47-.09C120,77.47,111.77,43,109.88,36.25c-3.13,13.1-5.76,26.38-9.1,39.41-.94,3.66-1.63,7.58-5.24,9.53a7,7,0,0,1-5.94.45,5.05,5.05,0,0,1-2.69-2.83,12.81,12.81,0,0,1-.5-6.89c1.57-10.38,5.19-21,7.68-31.25l5.45-22.58c1-4.13,1.75-8.6,3.3-12.55C104.53,5.23,106.29,3.37,110.52,1.54Z"/><path class="cls-2" d="M502.16,16.82C498,9.45,490.77,5.09,482.71,3.08s-16.75-1.55-25-1.4c-2,.82-4.6,1.9-5.6,4-2.73,5.74-5.45,22.82-7,29.76-2.72,12.12-6.14,24.25-8.39,36.46a29.45,29.45,0,0,0-.55,6.76,10.78,10.78,0,0,0,7.53,4.72c10.83,2,25.43-.8,35.32-5.53,12.07-6.94,21.5-16.13,25.27-29.86C507,38,507.44,26.09,502.16,16.82ZM491.9,37.69a25.08,25.08,0,0,1-1.57,7.3,34.78,34.78,0,0,1-3.06,6.62A23,23,0,0,1,483,57.8c-.18.19-.44.47-.81.83a51,51,0,0,1-5.84,4.91c-4.83,3.31-11.7,5.18-12.49,5.39s-1.93.36-3.34.6h0c-2.51.53-3.26.4-5.62.74a19.76,19.76,0,0,1-3.28.11c-.2,0-.62,0-.8-.3,0-.06-.09-.21,0-.92a9.62,9.62,0,0,1,.31-1.11c.12-.42.16-.68.23-1,.22-1.1.61-2.3,1.08-4,.13-.45.32-1.19.71-2.65.72-2.75.84-3.35,1.65-6.51,2.34-9,2.25-8.41,2.77-10.72.88-3.93.59-3.54,1.68-8.5.73-3.31,1.52-6.5,2-8.24.47-1.91.88-3.5,1.17-4.64.17-.66.36-1.31.61-2.3.32-1.26.55-2.31.7-3a1.26,1.26,0,0,1,.26-.42,1.73,1.73,0,0,1,1.19-.51,35.85,35.85,0,0,1,6.48-.14c3.12.29,2.88.25,3.08.28a27.46,27.46,0,0,1,9.56,3.71,10.39,10.39,0,0,0-1.79-1.13,31.88,31.88,0,0,1,3.33,2.38c3.81,3.32,4.91,8.1,5.47,10.53A23.44,23.44,0,0,1,491.9,37.69Z"/><path class="cls-2" d="M588.07,28.41c-.67-8.14-4-16-10.25-21.43C571,1.08,561.34-.61,552.58.18l-.49.07C538.1,1.89,526.52,9,517.86,20.1c-.48.61-1,1.24-1.39,1.87s-.88,1.28-1.3,1.93-.82,1.32-1.2,2-.76,1.36-1.11,2.05-.68,1.39-1,2.1-.62,1.42-.9,2.14-.55,1.45-.8,2.19-.48,1.47-.69,2.22-.41,1.5-.58,2.25-.33,1.51-.47,2.28-.26,1.53-.36,2.3-.19,1.54-.25,2.31-.11,1.55-.13,2.32,0,1.55,0,2.33,0,1.55.09,2.32.12,1.55.21,2.32a31.84,31.84,0,0,0,11.87,21.5c7.27,5.53,15.56,6.52,24.4,6.22,12.44-1,22.83-6.68,30.93-16.11C584.14,56.14,589.23,42.28,588.07,28.41Zm-15.2,11.1a32.24,32.24,0,0,1-8.46,17.8,2.17,2.17,0,0,1-.24.29,3.21,3.21,0,0,1-.29.28,4.19,4.19,0,0,0-.51.55A35.1,35.1,0,0,1,552.13,66a41.33,41.33,0,0,1-7.73,2.18,24.82,24.82,0,0,1-4,.52c-4.91.2-8.57-1.19-11.39-4l-.44-.33c-4.35-3.38-5.68-9.31-5.85-14.74,0,0,0-.09,0-.18C522,38.55,528.84,26.76,537.8,20l.52-.4a39.43,39.43,0,0,1,4-2.66,17.43,17.43,0,0,1,4.45-1.63,22,22,0,0,1,4.18-.72c.72-.06,1.29-.07,1.58-.07a22.94,22.94,0,0,1,9.19,2l.69.37.08,0C570.51,21.33,574.05,29.86,572.87,39.51Z"/><path class="cls-1" d="M642.42,37.47c.9.43,1.79.89,2.67,1.36s1.75,1,2.6,1.49,1.7,1,2.53,1.61,1.65,1.13,2.45,1.73,1.58,1.22,2.35,1.85,1.53,1.29,2.27,2,1.46,1.36,2.17,2.07,1.39,1.43,2.06,2.17,1.32,1.5,2,2.28,1.25,1.56,1.84,2.36S666.48,58,667,58.82s1.08,1.67,1.6,2.53,1,1.73,1.47,2.61.92,1.77,1.35,2.68.83,1.81,1.21,2.74.79,1.9,1.14,2.87.69,1.94,1,2.92.58,2,.84,3,.49,2,.7,3,.39,2,.55,3,.29,2,.4,3.06.19,2.05.25,3.08.08,2.06.09,3.09,0,2.06-.06,3.08-.12,2.06-.21,3.08-.22,2.05-.37,3.07-.32,2-.51,3-.42,2-.67,3-.52,2-.82,3-.61,2-1,2.94-.71,1.93-1.1,2.88c-4.38,10.47-13.52,22.69-24.24,27.26a13.49,13.49,0,0,1-6.24,1.26c-2.27-1.25-4.92-2.83-5.74-5.48a6.71,6.71,0,0,1,.66-5.44c2.21-4.06,7.33-6.31,10.73-9.35,11.77-10.55,16.23-28.12,12.31-43.19-2.73-10.5-9.36-21.25-18.62-27.17-3.32-2.13-7.46-4-10.17-6.86-2-2.15-3.12-5-1.63-7.76a9.73,9.73,0,0,1,5.71-4.53,13.9,13.9,0,0,1,4,0C640.61,36.63,641.52,37,642.42,37.47Z"/><path class="cls-2" d="M418.06,131.23c-1.61-9.7-2.68-19.56-4.55-29.2-.36-1.86-.81-4.25-2-5.77-1-1.25-2.92-1.37-4.38-1.58a9.94,9.94,0,0,0-5.29,3.58c-7.65,9.6-13.66,21.42-20.37,31.76l-17,26.36c-2.88,4.4-6.49,8.79-8.83,13.5a6,6,0,0,0-.46,4.88,5.47,5.47,0,0,0,3.77,3.15,8.82,8.82,0,0,0,6.91-1c4.14-2.75,7.22-10,10.26-14l2.66-2.76c6.33-.09,25.82-1.44,30.25,2.06,3,4.81.4,14.14,7.61,15.88a5.32,5.32,0,0,0,4.48-.81,9.07,9.07,0,0,0,3.49-6.37C425.06,167.54,419,137.07,418.06,131.23ZM401.9,146.1c-1.69-.09-3.38-.14-5.07-.21l-3.49-.15c-.83,0-2.16-.1-3.41-.22-.53-.05-.56-.06-.91-.08-1.2-.08-1.55,0-1.68-.16s.13-.51.82-1.67c.52-.87.27-.51.88-1.53s1-1.68,1.26-2c1.6-2.47,1.34-2.27,2.3-3.67s1.31-1.74,2.19-3.18c.29-.46.51-.86.66-1.11l.85-1.27.77-1.15c.25-.34.58-.8,1-1.37.6-.87.68-1,1.6-2.44s.8-1.16.94-1.42c.36-.66.46-1,.67-1s.28.06.72,1.29a21.18,21.18,0,0,1,.73,2.56c.14.6.23,1,.33,1.46.16.79.25,1.38.29,1.63.11.74.31,1.85.65,3.4s.48,2.94.61,3.84c.16,1.1.22,1.65.35,2.6.05.31.08.5.2,1.38.25,1.75.24,1.7.25,1.76a12.23,12.23,0,0,1,.4,2.24.7.7,0,0,1-.09.49c-.26.32-.9.15-1.6.06S402.62,146.15,401.9,146.1Z"/><path class="cls-2" d="M495.54,112c-4.19-7.37-11.39-11.73-19.44-13.74s-16.76-1.55-25-1.4c-2,.82-4.6,1.9-5.6,4-2.74,5.74-5.46,22.82-7,29.76-2.72,12.12-6.14,24.25-8.38,36.46a28.38,28.38,0,0,0-.55,6.76,10.76,10.76,0,0,0,7.52,4.72c10.83,2,25.43-.8,35.32-5.53,12.08-6.94,21.5-16.13,25.28-29.86C500.39,133.16,500.82,121.27,495.54,112Zm-10.25,20.87a25.33,25.33,0,0,1-1.57,7.3,34.92,34.92,0,0,1-3.07,6.62,23,23,0,0,1-4.26,6.19c-.18.19-.44.47-.81.83a50.3,50.3,0,0,1-5.85,4.91c-4.82,3.31-11.69,5.18-12.49,5.39l-3.34.61h0c-2.51.53-3.27.4-5.63.74a19.76,19.76,0,0,1-3.28.11c-.2,0-.61,0-.79-.3,0-.06-.09-.21,0-.92a9.83,9.83,0,0,1,.32-1.11c.12-.42.16-.68.22-1,.23-1.1.62-2.3,1.08-4,.13-.45.33-1.19.71-2.65.73-2.75.84-3.34,1.66-6.51,2.33-9,2.25-8.41,2.77-10.72.87-3.93.59-3.54,1.68-8.5.72-3.31,1.51-6.5,1.94-8.24.47-1.91.88-3.5,1.17-4.64.17-.66.37-1.31.62-2.3.32-1.26.55-2.31.7-3a1.39,1.39,0,0,1,.25-.42,1.76,1.76,0,0,1,1.19-.51,35.85,35.85,0,0,1,6.48-.14c3.13.29,2.88.25,3.08.28a27.36,27.36,0,0,1,9.56,3.71,10.7,10.7,0,0,0-1.78-1.13,31.16,31.16,0,0,1,3.32,2.38c3.81,3.32,4.91,8.1,5.47,10.53A24.06,24.06,0,0,1,485.29,132.87Z"/><path class="cls-2" d="M584.26,123.76c-.68-8.14-4-16-10.25-21.43-6.82-5.9-16.48-7.59-25.25-6.8l-.49.07c-14,1.64-25.56,8.77-34.23,19.85-.48.61-.94,1.24-1.39,1.87s-.88,1.28-1.29,1.93-.82,1.32-1.21,2-.75,1.36-1.1,2.05-.69,1.39-1,2.1-.61,1.42-.9,2.14-.55,1.45-.79,2.19-.48,1.47-.69,2.22-.41,1.5-.58,2.25-.34,1.52-.48,2.28-.25,1.53-.36,2.3-.18,1.54-.24,2.31-.11,1.55-.14,2.32,0,1.55,0,2.33,0,1.55.09,2.32.12,1.55.2,2.32A31.82,31.82,0,0,0,516,171.87c7.27,5.53,15.56,6.52,24.4,6.22,12.44-1,22.83-6.68,30.92-16.11C580.33,151.5,585.41,137.63,584.26,123.76Zm-15.2,11.1a32.31,32.31,0,0,1-8.46,17.8,3.36,3.36,0,0,1-.24.29,2.18,2.18,0,0,1-.3.28,4.25,4.25,0,0,0-.5.55,35.1,35.1,0,0,1-11.24,7.61,41.54,41.54,0,0,1-7.73,2.18,24.82,24.82,0,0,1-4.05.52c-4.91.2-8.57-1.19-11.39-4l-.44-.33c-4.35-3.38-5.68-9.31-5.86-14.74a1.53,1.53,0,0,0,0-.18c-.7-10.93,6.18-22.72,15.14-29.49l.53-.4a37.33,37.33,0,0,1,4-2.66,17.66,17.66,0,0,1,4.45-1.63,22.85,22.85,0,0,1,4.17-.72c.73-.06,1.3-.07,1.59-.07a22.94,22.94,0,0,1,9.19,2l.69.37.08,0C566.69,116.68,570.24,125.21,569.06,134.86Z"/><path class="cls-2" d="M168.51,121.89c-.67-8.14-4-16-10.25-21.43-6.81-5.9-16.48-7.59-25.24-6.8-.17,0-.33,0-.5.06-14,1.64-25.56,8.78-34.22,19.86-.48.61-1,1.23-1.39,1.86s-.89,1.28-1.3,1.93-.82,1.32-1.21,2-.75,1.35-1.1,2-.69,1.39-1,2.1-.62,1.42-.91,2.15-.54,1.45-.79,2.18-.48,1.48-.69,2.22-.41,1.5-.58,2.26-.34,1.51-.47,2.27-.26,1.53-.36,2.3-.19,1.54-.25,2.32-.11,1.54-.14,2.32,0,1.55,0,2.32,0,1.55.09,2.33.12,1.54.2,2.32A31.87,31.87,0,0,0,100.26,170c7.27,5.53,15.56,6.53,24.4,6.23,12.44-1,22.83-6.69,30.92-16.12C164.58,149.62,169.67,135.76,168.51,121.89ZM153.31,133a32.27,32.27,0,0,1-8.46,17.81,3.07,3.07,0,0,1-.24.29,3.1,3.1,0,0,1-.3.28,4.3,4.3,0,0,0-.5.55,35.1,35.1,0,0,1-11.24,7.6,42.44,42.44,0,0,1-7.73,2.19,27.22,27.22,0,0,1-4,.52c-4.91.19-8.57-1.19-11.39-4l-.44-.32c-4.35-3.39-5.68-9.32-5.85-14.75a1.3,1.3,0,0,1,0-.17c-.7-10.93,6.19-22.72,15.14-29.5l.53-.39a36.36,36.36,0,0,1,4-2.66,17.23,17.23,0,0,1,4.45-1.64,23.76,23.76,0,0,1,4.17-.72c.73,0,1.3-.06,1.59-.07a22.84,22.84,0,0,1,9.19,2c.34.17.69.37.69.37l.08,0C151,114.8,154.49,123.34,153.31,133Z"/></g></g></svg>